<mxfile host="app.diagrams.net" modified="2023-09-02T10:01:54.192Z" agent="Mozilla/5.0 (Macintosh; Intel Mac OS X 10_15_7) AppleWebKit/537.36 (KHTML, like Gecko) Chrome/116.0.0.0 Safari/537.36" version="21.7.2" etag="sICFJG00KvgSeTUeCZWC" type="github">
  <diagram name="Page-1" id="oDtmZFfL--cBZjH9brlF">
    <mxGraphModel>
      <root>
        <mxCell id="0" />
        <mxCell id="1" parent="0" />
        <mxCell id="2" value="Start" style="whiteSpace=wrap;strokeWidth=2;" vertex="1" parent="1">
          <mxGeometry x="1087" width="50" height="34" as="geometry" />
        </mxCell>
        <mxCell id="3" value="Login" style="whiteSpace=wrap;strokeWidth=2;" vertex="1" parent="1">
          <mxGeometry x="1086" y="84" width="53" height="34" as="geometry" />
        </mxCell>
        <mxCell id="4" value="Dashboard" style="whiteSpace=wrap;strokeWidth=2;" vertex="1" parent="1">
          <mxGeometry x="1067" y="167" width="89" height="34" as="geometry" />
        </mxCell>
        <mxCell id="5" value="Employee Management" style="whiteSpace=wrap;strokeWidth=2;" vertex="1" parent="1">
          <mxGeometry x="767" y="251" width="180" height="34" as="geometry" />
        </mxCell>
        <mxCell id="6" value="Payroll Management" style="whiteSpace=wrap;strokeWidth=2;" vertex="1" parent="1">
          <mxGeometry x="1347" y="251" width="159" height="34" as="geometry" />
        </mxCell>
        <mxCell id="7" value="Reports" style="whiteSpace=wrap;strokeWidth=2;" vertex="1" parent="1">
          <mxGeometry x="1837" y="251" width="69" height="34" as="geometry" />
        </mxCell>
        <mxCell id="8" value="Settings" style="whiteSpace=wrap;strokeWidth=2;" vertex="1" parent="1">
          <mxGeometry x="202" y="251" width="72" height="34" as="geometry" />
        </mxCell>
        <mxCell id="9" value="Manage Users" style="whiteSpace=wrap;strokeWidth=2;" vertex="1" parent="1">
          <mxGeometry x="54" y="334" width="112" height="34" as="geometry" />
        </mxCell>
        <mxCell id="10" value="Manage Company Details" style="whiteSpace=wrap;strokeWidth=2;" vertex="1" parent="1">
          <mxGeometry x="216" y="334" width="193" height="34" as="geometry" />
        </mxCell>
        <mxCell id="11" value="Add User" style="whiteSpace=wrap;strokeWidth=2;" vertex="1" parent="1">
          <mxGeometry y="418" width="79" height="34" as="geometry" />
        </mxCell>
        <mxCell id="12" value="Update User" style="whiteSpace=wrap;strokeWidth=2;" vertex="1" parent="1">
          <mxGeometry x="129" y="418" width="103" height="34" as="geometry" />
        </mxCell>
        <mxCell id="13" value="Delete User" style="whiteSpace=wrap;strokeWidth=2;" vertex="1" parent="1">
          <mxGeometry x="420" y="418" width="99" height="34" as="geometry" />
        </mxCell>
        <mxCell id="14" value="Save User" style="whiteSpace=wrap;strokeWidth=2;" vertex="1" parent="1">
          <mxGeometry x="143" y="501" width="84" height="34" as="geometry" />
        </mxCell>
        <mxCell id="15" value="View Employees" style="whiteSpace=wrap;strokeWidth=2;" vertex="1" parent="1">
          <mxGeometry x="459" y="334" width="130" height="34" as="geometry" />
        </mxCell>
        <mxCell id="16" value="Add Employee" style="whiteSpace=wrap;strokeWidth=2;" vertex="1" parent="1">
          <mxGeometry x="639" y="334" width="117" height="34" as="geometry" />
        </mxCell>
        <mxCell id="17" value="Update Employee" style="whiteSpace=wrap;strokeWidth=2;" vertex="1" parent="1">
          <mxGeometry x="805" y="334" width="141" height="34" as="geometry" />
        </mxCell>
        <mxCell id="18" value="Delete Employee" style="whiteSpace=wrap;strokeWidth=2;" vertex="1" parent="1">
          <mxGeometry x="996" y="334" width="136" height="34" as="geometry" />
        </mxCell>
        <mxCell id="19" value="Save Employee" style="whiteSpace=wrap;strokeWidth=2;" vertex="1" parent="1">
          <mxGeometry x="796" y="418" width="122" height="34" as="geometry" />
        </mxCell>
        <mxCell id="20" value="View Payroll" style="whiteSpace=wrap;strokeWidth=2;" vertex="1" parent="1">
          <mxGeometry x="1182" y="334" width="103" height="34" as="geometry" />
        </mxCell>
        <mxCell id="21" value="Generate Payroll" style="whiteSpace=wrap;strokeWidth=2;" vertex="1" parent="1">
          <mxGeometry x="1502" y="334" width="135" height="34" as="geometry" />
        </mxCell>
        <mxCell id="22" value="Send Payroll" style="whiteSpace=wrap;strokeWidth=2;" vertex="1" parent="1">
          <mxGeometry x="1335" y="334" width="103" height="34" as="geometry" />
        </mxCell>
        <mxCell id="23" value="Email Payroll" style="whiteSpace=wrap;strokeWidth=2;" vertex="1" parent="1">
          <mxGeometry x="1240" y="418" width="108" height="34" as="geometry" />
        </mxCell>
        <mxCell id="24" value="End" style="whiteSpace=wrap;strokeWidth=2;" vertex="1" parent="1">
          <mxGeometry x="1481" y="668" width="41" height="34" as="geometry" />
        </mxCell>
        <mxCell id="25" value="Calculate Payroll" style="whiteSpace=wrap;strokeWidth=2;" vertex="1" parent="1">
          <mxGeometry x="1501" y="418" width="136" height="34" as="geometry" />
        </mxCell>
        <mxCell id="26" value="Generate Payslips" style="whiteSpace=wrap;strokeWidth=2;" vertex="1" parent="1">
          <mxGeometry x="1498" y="501" width="142" height="34" as="geometry" />
        </mxCell>
        <mxCell id="27" value="Distribute Payslips" style="whiteSpace=wrap;strokeWidth=2;" vertex="1" parent="1">
          <mxGeometry x="1496" y="585" width="146" height="34" as="geometry" />
        </mxCell>
        <mxCell id="28" value="Generate Reports" style="whiteSpace=wrap;strokeWidth=2;" vertex="1" parent="1">
          <mxGeometry x="1693" y="585" width="140" height="34" as="geometry" />
        </mxCell>
        <mxCell id="29" value="Download Reports" style="whiteSpace=wrap;strokeWidth=2;" vertex="1" parent="1">
          <mxGeometry x="1744" y="668" width="143" height="34" as="geometry" />
        </mxCell>
        <mxCell id="30" value="Print Reports" style="whiteSpace=wrap;strokeWidth=2;" vertex="1" parent="1">
          <mxGeometry x="1827" y="752" width="108" height="34" as="geometry" />
        </mxCell>
        <mxCell id="31" value="Export Reports" style="whiteSpace=wrap;strokeWidth=2;" vertex="1" parent="1">
          <mxGeometry x="1856" y="334" width="120" height="34" as="geometry" />
        </mxCell>
        <mxCell id="32" value="Save Reports" style="whiteSpace=wrap;strokeWidth=2;" vertex="1" parent="1">
          <mxGeometry x="1819" y="418" width="106" height="34" as="geometry" />
        </mxCell>
        <mxCell id="33" value="Download Reports" style="whiteSpace=wrap;strokeWidth=2;" vertex="1" parent="1">
          <mxGeometry x="1811" y="501" width="143" height="34" as="geometry" />
        </mxCell>
        <mxCell id="34" value="" style="curved=1;startArrow=none;endArrow=block;exitX=0.504296875;exitY=0.9852941176470589;entryX=0.4946196933962264;entryY=-0.014705882352941176;" edge="1" parent="1" source="2" target="3">
          <mxGeometry relative="1" as="geometry">
            <Array as="points" />
          </mxGeometry>
        </mxCell>
        <mxCell id="35" value="" style="curved=1;startArrow=none;endArrow=block;exitX=0.4946196933962264;exitY=0.9705882352941176;entryX=0.508031952247191;entryY=0;" edge="1" parent="1" source="3" target="4">
          <mxGeometry relative="1" as="geometry">
            <Array as="points" />
          </mxGeometry>
        </mxCell>
        <mxCell id="36" value="" style="curved=1;startArrow=none;endArrow=block;exitX=0.005354634831460674;exitY=0.7077083461704013;entryX=0.49873046875;entryY=-0.014705882352941176;" edge="1" parent="1" source="4" target="5">
          <mxGeometry relative="1" as="geometry">
            <Array as="points">
              <mxPoint x="857" y="226" />
            </Array>
          </mxGeometry>
        </mxCell>
        <mxCell id="37" value="" style="curved=1;startArrow=none;endArrow=block;exitX=1.0107092696629214;exitY=0.6673611440973685;entryX=0.50093356918239;entryY=-0.014705882352941176;" edge="1" parent="1" source="4" target="6">
          <mxGeometry relative="1" as="geometry">
            <Array as="points">
              <mxPoint x="1427" y="226" />
            </Array>
          </mxGeometry>
        </mxCell>
        <mxCell id="38" value="" style="curved=1;startArrow=none;endArrow=block;exitX=1.0107092696629214;exitY=0.5649656225635766;entryX=0.5051234148550725;entryY=-0.014705882352941176;" edge="1" parent="1" source="4" target="7">
          <mxGeometry relative="1" as="geometry">
            <Array as="points">
              <mxPoint x="1872" y="226" />
            </Array>
          </mxGeometry>
        </mxCell>
        <mxCell id="39" value="" style="curved=1;startArrow=none;endArrow=block;exitX=0.005354634831460674;exitY=0.5554552874212583;entryX=0.4937879774305556;entryY=-0.014705882352941176;" edge="1" parent="1" source="4" target="8">
          <mxGeometry relative="1" as="geometry">
            <Array as="points">
              <mxPoint x="238" y="226" />
            </Array>
          </mxGeometry>
        </mxCell>
        <mxCell id="40" value="" style="curved=1;startArrow=none;endArrow=block;exitX=-0.005669487847222222;exitY=0.8240974820279954;entryX=0.4998779296875;entryY=0;" edge="1" parent="1" source="8" target="9">
          <mxGeometry relative="1" as="geometry">
            <Array as="points">
              <mxPoint x="110" y="309" />
            </Array>
          </mxGeometry>
        </mxCell>
        <mxCell id="41" value="" style="curved=1;startArrow=none;endArrow=block;exitX=0.9099390736755658;exitY=0.9705882352941176;entryX=0.4986338244818653;entryY=0;" edge="1" parent="1" source="8" target="10">
          <mxGeometry relative="1" as="geometry">
            <Array as="points">
              <mxPoint x="312" y="309" />
            </Array>
          </mxGeometry>
        </mxCell>
        <mxCell id="42" value="" style="curved=1;startArrow=none;endArrow=block;exitX=0.247177450344846;exitY=0.9852941176470589;entryX=0.49925830696202533;entryY=-0.014705882352941176;" edge="1" parent="1" source="9" target="11">
          <mxGeometry relative="1" as="geometry">
            <Array as="points">
              <mxPoint x="39" y="393" />
            </Array>
          </mxGeometry>
        </mxCell>
        <mxCell id="43" value="" style="curved=1;startArrow=none;endArrow=block;exitX=0.752578409030154;exitY=0.9852941176470589;entryX=0.5003033980582524;entryY=-0.014705882352941176;" edge="1" parent="1" source="9" target="12">
          <mxGeometry relative="1" as="geometry">
            <Array as="points">
              <mxPoint x="181" y="393" />
            </Array>
          </mxGeometry>
        </mxCell>
        <mxCell id="44" value="" style="curved=1;startArrow=none;endArrow=block;exitX=0.9987967354910714;exitY=0.6838123264541844;entryX=0.49416035353535354;entryY=-0.014705882352941176;" edge="1" parent="1" source="9" target="13">
          <mxGeometry relative="1" as="geometry">
            <Array as="points">
              <mxPoint x="469" y="393" />
            </Array>
          </mxGeometry>
        </mxCell>
        <mxCell id="45" value="" style="curved=1;startArrow=none;endArrow=block;exitX=0.49925830696202533;exitY=0.9705882352941176;entryX=0.00402250744047619;entryY=0.13831103518429153;" edge="1" parent="1" source="11" target="14">
          <mxGeometry relative="1" as="geometry">
            <Array as="points">
              <mxPoint x="39" y="476" />
            </Array>
          </mxGeometry>
        </mxCell>
        <mxCell id="46" value="" style="curved=1;startArrow=none;endArrow=block;exitX=0.5003033980582524;exitY=0.9705882352941176;entryX=0.4820676726903337;entryY=0;" edge="1" parent="1" source="12" target="14">
          <mxGeometry relative="1" as="geometry">
            <Array as="points">
              <mxPoint x="181" y="476" />
            </Array>
          </mxGeometry>
        </mxCell>
        <mxCell id="47" value="" style="curved=1;startArrow=none;endArrow=block;exitX=0.49416035353535354;exitY=0.9705882352941176;entryX=1.0073707217261905;entryY=0.3100842753672235;" edge="1" parent="1" source="13" target="14">
          <mxGeometry relative="1" as="geometry">
            <Array as="points">
              <mxPoint x="469" y="476" />
            </Array>
          </mxGeometry>
        </mxCell>
        <mxCell id="48" value="" style="curved=1;startArrow=none;endArrow=block;exitX=-0.001247829861111111;exitY=0.8096471229660618;entryX=0.4970402644230769;entryY=0;" edge="1" parent="1" source="5" target="15">
          <mxGeometry relative="1" as="geometry">
            <Array as="points">
              <mxPoint x="524" y="309" />
            </Array>
          </mxGeometry>
        </mxCell>
        <mxCell id="49" value="" style="curved=1;startArrow=none;endArrow=block;exitX=0.14233674577927471;exitY=0.9705882352941176;entryX=0.49464142628205127;entryY=0;" edge="1" parent="1" source="5" target="16">
          <mxGeometry relative="1" as="geometry">
            <Array as="points">
              <mxPoint x="697" y="309" />
            </Array>
          </mxGeometry>
        </mxCell>
        <mxCell id="50" value="" style="curved=1;startArrow=none;endArrow=block;exitX=0.5406524840943114;exitY=0.9705882352941176;entryX=0.500567929964539;entryY=0;" edge="1" parent="1" source="5" target="17">
          <mxGeometry relative="1" as="geometry">
            <Array as="points">
              <mxPoint x="876" y="309" />
            </Array>
          </mxGeometry>
        </mxCell>
        <mxCell id="51" value="" style="curved=1;startArrow=none;endArrow=block;exitX=0.9610219015094812;exitY=0.9705882352941176;entryX=0.5013355928308824;entryY=0;" edge="1" parent="1" source="5" target="18">
          <mxGeometry relative="1" as="geometry">
            <Array as="points">
              <mxPoint x="1064" y="309" />
            </Array>
          </mxGeometry>
        </mxCell>
        <mxCell id="52" value="" style="curved=1;startArrow=none;endArrow=block;exitX=0.49464142628205127;exitY=0.9852941176470589;entryX=0;entryY=0.010400914230429822;" edge="1" parent="1" source="16" target="19">
          <mxGeometry relative="1" as="geometry">
            <Array as="points">
              <mxPoint x="697" y="393" />
            </Array>
          </mxGeometry>
        </mxCell>
        <mxCell id="53" value="" style="curved=1;startArrow=none;endArrow=block;exitX=0.500567929964539;exitY=0.9852941176470589;entryX=0.560851433659321;entryY=-0.014705882352941176;" edge="1" parent="1" source="17" target="19">
          <mxGeometry relative="1" as="geometry">
            <Array as="points">
              <mxPoint x="876" y="393" />
            </Array>
          </mxGeometry>
        </mxCell>
        <mxCell id="54" value="" style="curved=1;startArrow=none;endArrow=block;exitX=0.5013355928308824;exitY=0.9852941176470589;entryX=0.9991675204918032;entryY=0.1167908569420052;" edge="1" parent="1" source="18" target="19">
          <mxGeometry relative="1" as="geometry">
            <Array as="points">
              <mxPoint x="1064" y="393" />
            </Array>
          </mxGeometry>
        </mxCell>
        <mxCell id="55" value="" style="curved=1;startArrow=none;endArrow=block;exitX=0.014186765031258486;exitY=0.9705882352941176;entryX=0.5023702973300971;entryY=0;" edge="1" parent="1" source="6" target="20">
          <mxGeometry relative="1" as="geometry">
            <Array as="points">
              <mxPoint x="1234" y="309" />
            </Array>
          </mxGeometry>
        </mxCell>
        <mxCell id="56" value="" style="curved=1;startArrow=none;endArrow=block;exitX=0.8613401881378756;exitY=0.9705882352941176;entryX=0.4998697916666667;entryY=0;" edge="1" parent="1" source="6" target="21">
          <mxGeometry relative="1" as="geometry">
            <Array as="points">
              <mxPoint x="1569" y="309" />
            </Array>
          </mxGeometry>
        </mxCell>
        <mxCell id="57" value="" style="curved=1;startArrow=none;endArrow=block;exitX=0.3995450284572361;exitY=0.9705882352941176;entryX=0.4996776395631068;entryY=0;" edge="1" parent="1" source="6" target="22">
          <mxGeometry relative="1" as="geometry">
            <Array as="points">
              <mxPoint x="1386" y="309" />
            </Array>
          </mxGeometry>
        </mxCell>
        <mxCell id="58" value="" style="curved=1;startArrow=none;endArrow=block;exitX=0.001573877427184466;exitY=0.869980082039015;entryX=0.22487966774783713;entryY=-0.014705882352941176;" edge="1" parent="1" source="22" target="23">
          <mxGeometry relative="1" as="geometry">
            <Array as="points">
              <mxPoint x="1220" y="393" />
            </Array>
          </mxGeometry>
        </mxCell>
        <mxCell id="59" value="" style="curved=1;startArrow=none;endArrow=block;exitX=0.6730790542701006;exitY=0.9852941176470589;entryX=0.0022865853658536584;entryY=0.1347434085481743;" edge="1" parent="1" source="22" target="24">
          <mxGeometry relative="1" as="geometry">
            <Array as="points">
              <mxPoint x="1431" y="393" />
              <mxPoint x="1431" y="643" />
            </Array>
          </mxGeometry>
        </mxCell>
        <mxCell id="60" value="" style="curved=1;startArrow=none;endArrow=block;exitX=0.4998697916666667;exitY=0.9852941176470589;entryX=0.5035472196691176;entryY=-0.014705882352941176;" edge="1" parent="1" source="21" target="25">
          <mxGeometry relative="1" as="geometry">
            <Array as="points" />
          </mxGeometry>
        </mxCell>
        <mxCell id="61" value="" style="curved=1;startArrow=none;endArrow=block;exitX=0.5035472196691176;exitY=0.9705882352941176;entryX=0.5033973371478874;entryY=0;" edge="1" parent="1" source="25" target="26">
          <mxGeometry relative="1" as="geometry">
            <Array as="points" />
          </mxGeometry>
        </mxCell>
        <mxCell id="62" value="" style="curved=1;startArrow=none;endArrow=block;exitX=0.5033973371478874;exitY=0.9852941176470589;entryX=0.5033042594178082;entryY=-0.014705882352941176;" edge="1" parent="1" source="26" target="27">
          <mxGeometry relative="1" as="geometry">
            <Array as="points" />
          </mxGeometry>
        </mxCell>
        <mxCell id="63" value="" style="curved=1;startArrow=none;endArrow=block;exitX=0.5033042594178082;exitY=0.9705882352941176;entryX=1.0078125;entryY=0.11917968968515759;" edge="1" parent="1" source="27" target="24">
          <mxGeometry relative="1" as="geometry">
            <Array as="points">
              <mxPoint x="1569" y="643" />
            </Array>
          </mxGeometry>
        </mxCell>
        <mxCell id="64" value="" style="curved=1;startArrow=none;endArrow=block;exitX=0.7771514010813325;exitY=0.9852941176470589;entryX=0.5398244309991133;entryY=-0.014705882352941176;" edge="1" parent="1" source="20" target="23">
          <mxGeometry relative="1" as="geometry">
            <Array as="points">
              <mxPoint x="1304" y="393" />
            </Array>
          </mxGeometry>
        </mxCell>
        <mxCell id="65" value="" style="curved=1;startArrow=none;endArrow=block;exitX=0.005632925724637681;exitY=0.7551209293295943;entryX=0.37346899393177996;entryY=-0.014705882352941176;" edge="1" parent="1" source="7" target="28">
          <mxGeometry relative="1" as="geometry">
            <Array as="points">
              <mxPoint x="1719" y="309" />
              <mxPoint x="1719" y="560" />
            </Array>
          </mxGeometry>
        </mxCell>
        <mxCell id="66" value="" style="curved=1;startArrow=none;endArrow=block;exitX=0.49845145089285714;exitY=0.9705882352941176;entryX=0.3516736468060384;entryY=0;" edge="1" parent="1" source="28" target="29">
          <mxGeometry relative="1" as="geometry">
            <Array as="points">
              <mxPoint x="1763" y="643" />
            </Array>
          </mxGeometry>
        </mxCell>
        <mxCell id="67" value="" style="curved=1;startArrow=none;endArrow=block;exitX=0.4992897727272727;exitY=0.9852941176470589;entryX=0.256888566616767;entryY=-0.014705882352941176;" edge="1" parent="1" source="29" target="30">
          <mxGeometry relative="1" as="geometry">
            <Array as="points">
              <mxPoint x="1815" y="727" />
            </Array>
          </mxGeometry>
        </mxCell>
        <mxCell id="68" value="" style="curved=1;startArrow=none;endArrow=block;exitX=0.7638667976546892;exitY=0.9705882352941176;entryX=0.5029459635416667;entryY=0;" edge="1" parent="1" source="7" target="31">
          <mxGeometry relative="1" as="geometry">
            <Array as="points">
              <mxPoint x="1916" y="309" />
            </Array>
          </mxGeometry>
        </mxCell>
        <mxCell id="69" value="" style="curved=1;startArrow=none;endArrow=block;exitX=0.35549408994511017;exitY=0.9852941176470589;entryX=0.5023584905660378;entryY=-0.014705882352941176;" edge="1" parent="1" source="31" target="32">
          <mxGeometry relative="1" as="geometry">
            <Array as="points">
              <mxPoint x="1872" y="393" />
            </Array>
          </mxGeometry>
        </mxCell>
        <mxCell id="70" value="" style="curved=1;startArrow=none;endArrow=block;exitX=0.1409760814455999;exitY=0.9705882352941176;entryX=0.20231810199531022;entryY=0;" edge="1" parent="1" source="32" target="33">
          <mxGeometry relative="1" as="geometry">
            <Array as="points">
              <mxPoint x="1777" y="476" />
            </Array>
          </mxGeometry>
        </mxCell>
        <mxCell id="71" value="" style="curved=1;startArrow=none;endArrow=block;exitX=0.6780991393524142;exitY=0.9852941176470589;entryX=0.7433595266065085;entryY=-0.014705882352941176;" edge="1" parent="1" source="33" target="30">
          <mxGeometry relative="1" as="geometry">
            <Array as="points">
              <mxPoint x="1946" y="560" />
              <mxPoint x="1946" y="727" />
            </Array>
          </mxGeometry>
        </mxCell>
        <mxCell id="72" value="" style="curved=1;startArrow=none;endArrow=block;exitX=0.5003504518497965;exitY=0.9852941176470589;entryX=0.6889457263357901;entryY=0;" edge="1" parent="1" source="33" target="29">
          <mxGeometry relative="1" as="geometry">
            <Array as="points">
              <mxPoint x="1883" y="560" />
              <mxPoint x="1883" y="643" />
            </Array>
          </mxGeometry>
        </mxCell>
        <mxCell id="73" value="" style="curved=1;startArrow=none;endArrow=block;exitX=0.4982517482517482;exitY=0;entryX=0.5402073212066436;entryY=0.9705882352941176;" edge="1" parent="1" source="33" target="32">
          <mxGeometry relative="1" as="geometry">
            <Array as="points">
              <mxPoint x="1882" y="476" />
            </Array>
          </mxGeometry>
        </mxCell>
        <mxCell id="74" value="" style="curved=1;startArrow=none;endArrow=block;exitX=0.3246785493697914;exitY=0.9852941176470589;entryX=0.663514488879384;entryY=-0.014705882352941176;" edge="1" parent="1" source="33" target="28">
          <mxGeometry relative="1" as="geometry">
            <Array as="points">
              <mxPoint x="1820" y="560" />
            </Array>
          </mxGeometry>
        </mxCell>
        <mxCell id="75" value="" style="curved=1;startArrow=none;endArrow=block;exitX=0.7176676476592277;exitY=0;entryX=0.6503978371382232;entryY=0.9852941176470589;" edge="1" parent="1" source="33" target="31">
          <mxGeometry relative="1" as="geometry">
            <Array as="points">
              <mxPoint x="1960" y="476" />
              <mxPoint x="1960" y="393" />
            </Array>
          </mxGeometry>
        </mxCell>
      </root>
    </mxGraphModel>
  </diagram>
</mxfile>
